<mxfile host="app.diagrams.net" modified="2023-10-20T17:52:15.168Z" agent="Mozilla/5.0 (Windows NT 10.0; Win64; x64) AppleWebKit/537.36 (KHTML, like Gecko) Chrome/118.0.0.0 Safari/537.36" etag="l8-ZhIHRCN8mfxZ1eZJt" version="22.0.6" type="device">
  <diagram name="Página-1" id="EfuLKs3U2r8X7J_PU4V5">
    <mxGraphModel dx="2074" dy="1110" grid="1" gridSize="10" guides="1" tooltips="1" connect="1" arrows="1" fold="1" page="1" pageScale="1" pageWidth="827" pageHeight="1169" math="0" shadow="0">
      <root>
        <mxCell id="0" />
        <mxCell id="1" parent="0" />
        <mxCell id="_J7R9dKTH4H18V0iJDxj-9" style="edgeStyle=orthogonalEdgeStyle;rounded=0;orthogonalLoop=1;jettySize=auto;html=1;" edge="1" parent="1" source="_pYoHENoAafG9YQ1V_dV-2" target="_pYoHENoAafG9YQ1V_dV-5">
          <mxGeometry relative="1" as="geometry" />
        </mxCell>
        <mxCell id="_pYoHENoAafG9YQ1V_dV-2" value="MENU INICIO" style="text;html=1;align=center;verticalAlign=middle;resizable=0;points=[];autosize=1;strokeColor=none;fillColor=#66B2FF;fontStyle=1;fontSize=18;" parent="1" vertex="1">
          <mxGeometry x="625" y="60" width="140" height="40" as="geometry" />
        </mxCell>
        <mxCell id="_J7R9dKTH4H18V0iJDxj-20" style="edgeStyle=orthogonalEdgeStyle;rounded=0;orthogonalLoop=1;jettySize=auto;html=1;" edge="1" parent="1" source="_pYoHENoAafG9YQ1V_dV-5" target="_pYoHENoAafG9YQ1V_dV-2">
          <mxGeometry relative="1" as="geometry">
            <Array as="points">
              <mxPoint x="485" y="80" />
            </Array>
          </mxGeometry>
        </mxCell>
        <mxCell id="_pYoHENoAafG9YQ1V_dV-5" value="SOBRE MÍ" style="text;html=1;align=center;verticalAlign=middle;resizable=0;points=[];autosize=1;strokeColor=none;fillColor=#66B2FF;fontStyle=1;fontSize=18;" parent="1" vertex="1">
          <mxGeometry x="430" y="150" width="110" height="40" as="geometry" />
        </mxCell>
        <mxCell id="_pYoHENoAafG9YQ1V_dV-76" style="edgeStyle=orthogonalEdgeStyle;rounded=0;orthogonalLoop=1;jettySize=auto;html=1;" parent="1" source="_pYoHENoAafG9YQ1V_dV-6" target="_pYoHENoAafG9YQ1V_dV-13" edge="1">
          <mxGeometry relative="1" as="geometry" />
        </mxCell>
        <mxCell id="_pYoHENoAafG9YQ1V_dV-83" style="edgeStyle=orthogonalEdgeStyle;rounded=0;orthogonalLoop=1;jettySize=auto;html=1;" parent="1" source="_pYoHENoAafG9YQ1V_dV-6" target="_pYoHENoAafG9YQ1V_dV-15" edge="1">
          <mxGeometry relative="1" as="geometry">
            <Array as="points">
              <mxPoint x="20" y="380" />
              <mxPoint x="20" y="380" />
            </Array>
          </mxGeometry>
        </mxCell>
        <mxCell id="_pYoHENoAafG9YQ1V_dV-6" value="VER PLANES" style="text;html=1;align=center;verticalAlign=middle;resizable=0;points=[];autosize=1;strokeColor=none;fillColor=#66B2FF;fontStyle=1;fontSize=18;" parent="1" vertex="1">
          <mxGeometry x="10" y="150" width="140" height="40" as="geometry" />
        </mxCell>
        <mxCell id="_pYoHENoAafG9YQ1V_dV-82" style="edgeStyle=orthogonalEdgeStyle;rounded=0;orthogonalLoop=1;jettySize=auto;html=1;" parent="1" source="_pYoHENoAafG9YQ1V_dV-13" target="_pYoHENoAafG9YQ1V_dV-22" edge="1">
          <mxGeometry relative="1" as="geometry">
            <Array as="points">
              <mxPoint x="615" y="310" />
            </Array>
          </mxGeometry>
        </mxCell>
        <mxCell id="_pYoHENoAafG9YQ1V_dV-13" value="PLAN BASICO" style="text;html=1;align=center;verticalAlign=middle;resizable=0;points=[];autosize=1;strokeColor=none;fillColor=#66B2FF;fontStyle=1;fontSize=18;" parent="1" vertex="1">
          <mxGeometry x="60" y="270" width="150" height="40" as="geometry" />
        </mxCell>
        <mxCell id="_pYoHENoAafG9YQ1V_dV-15" value="PLAN PREMIUM" style="text;html=1;align=center;verticalAlign=middle;resizable=0;points=[];autosize=1;strokeColor=none;fillColor=#66B2FF;fontStyle=1;fontSize=18;" parent="1" vertex="1">
          <mxGeometry x="50" y="360" width="160" height="40" as="geometry" />
        </mxCell>
        <mxCell id="_pYoHENoAafG9YQ1V_dV-85" style="edgeStyle=orthogonalEdgeStyle;rounded=0;orthogonalLoop=1;jettySize=auto;html=1;" parent="1" source="_pYoHENoAafG9YQ1V_dV-22" target="_pYoHENoAafG9YQ1V_dV-27" edge="1">
          <mxGeometry relative="1" as="geometry">
            <Array as="points">
              <mxPoint x="750" y="170" />
            </Array>
          </mxGeometry>
        </mxCell>
        <mxCell id="_pYoHENoAafG9YQ1V_dV-22" value="CARRITO" style="text;html=1;align=center;verticalAlign=middle;resizable=0;points=[];autosize=1;strokeColor=none;fillColor=#66B2FF;fontStyle=1;fontSize=18;" parent="1" vertex="1">
          <mxGeometry x="560" y="150" width="110" height="40" as="geometry" />
        </mxCell>
        <mxCell id="_pYoHENoAafG9YQ1V_dV-86" style="edgeStyle=orthogonalEdgeStyle;rounded=0;orthogonalLoop=1;jettySize=auto;html=1;" parent="1" source="_pYoHENoAafG9YQ1V_dV-27" target="_pYoHENoAafG9YQ1V_dV-29" edge="1">
          <mxGeometry relative="1" as="geometry" />
        </mxCell>
        <mxCell id="_J7R9dKTH4H18V0iJDxj-19" style="edgeStyle=orthogonalEdgeStyle;rounded=0;orthogonalLoop=1;jettySize=auto;html=1;" edge="1" parent="1" source="_pYoHENoAafG9YQ1V_dV-27" target="_pYoHENoAafG9YQ1V_dV-31">
          <mxGeometry relative="1" as="geometry" />
        </mxCell>
        <mxCell id="_pYoHENoAafG9YQ1V_dV-27" value="FINALIZAR COMPRA" style="text;html=1;align=center;verticalAlign=middle;resizable=0;points=[];autosize=1;strokeColor=none;fillColor=#66B2FF;fontStyle=1;fontSize=18;" parent="1" vertex="1">
          <mxGeometry x="585" y="410" width="200" height="40" as="geometry" />
        </mxCell>
        <mxCell id="_J7R9dKTH4H18V0iJDxj-15" style="edgeStyle=orthogonalEdgeStyle;rounded=0;orthogonalLoop=1;jettySize=auto;html=1;" edge="1" parent="1" source="_pYoHENoAafG9YQ1V_dV-29" target="_pYoHENoAafG9YQ1V_dV-37">
          <mxGeometry relative="1" as="geometry">
            <Array as="points">
              <mxPoint x="685" y="580" />
              <mxPoint x="535" y="580" />
              <mxPoint x="535" y="640" />
            </Array>
          </mxGeometry>
        </mxCell>
        <mxCell id="_J7R9dKTH4H18V0iJDxj-23" style="edgeStyle=orthogonalEdgeStyle;rounded=0;orthogonalLoop=1;jettySize=auto;html=1;" edge="1" parent="1" source="_pYoHENoAafG9YQ1V_dV-29">
          <mxGeometry relative="1" as="geometry">
            <mxPoint x="295" y="610" as="targetPoint" />
            <Array as="points">
              <mxPoint x="685" y="580" />
            </Array>
          </mxGeometry>
        </mxCell>
        <mxCell id="_J7R9dKTH4H18V0iJDxj-24" style="edgeStyle=orthogonalEdgeStyle;rounded=0;orthogonalLoop=1;jettySize=auto;html=1;" edge="1" parent="1" source="_pYoHENoAafG9YQ1V_dV-29">
          <mxGeometry relative="1" as="geometry">
            <mxPoint x="710" y="610" as="targetPoint" />
          </mxGeometry>
        </mxCell>
        <mxCell id="_pYoHENoAafG9YQ1V_dV-29" value="INICIAR SESION" style="text;html=1;align=center;verticalAlign=middle;resizable=0;points=[];autosize=1;strokeColor=none;fillColor=#66B2FF;fontStyle=1;fontSize=18;" parent="1" vertex="1">
          <mxGeometry x="605" y="510" width="160" height="40" as="geometry" />
        </mxCell>
        <mxCell id="_pYoHENoAafG9YQ1V_dV-31" value="REGISTRARSE" style="text;html=1;align=center;verticalAlign=middle;resizable=0;points=[];autosize=1;strokeColor=none;fillColor=#66B2FF;fontStyle=1;fontSize=18;" parent="1" vertex="1">
          <mxGeometry x="385" y="410" width="150" height="40" as="geometry" />
        </mxCell>
        <mxCell id="_pYoHENoAafG9YQ1V_dV-34" value="MI CUENTA" style="text;html=1;align=center;verticalAlign=middle;resizable=0;points=[];autosize=1;strokeColor=none;fillColor=#66B2FF;fontStyle=1;fontSize=18;" parent="1" vertex="1">
          <mxGeometry x="290" y="150" width="120" height="40" as="geometry" />
        </mxCell>
        <mxCell id="_pYoHENoAafG9YQ1V_dV-37" value="MIS PEDIDOS" style="text;html=1;align=center;verticalAlign=middle;resizable=0;points=[];autosize=1;strokeColor=none;fillColor=#66B2FF;fontStyle=1;fontSize=18;" parent="1" vertex="1">
          <mxGeometry x="425" y="610" width="140" height="40" as="geometry" />
        </mxCell>
        <mxCell id="_pYoHENoAafG9YQ1V_dV-38" value="METODOS DE PAGO" style="text;html=1;align=center;verticalAlign=middle;resizable=0;points=[];autosize=1;strokeColor=none;fillColor=#66B2FF;fontStyle=1;fontSize=18;" parent="1" vertex="1">
          <mxGeometry x="190" y="610" width="200" height="40" as="geometry" />
        </mxCell>
        <mxCell id="_pYoHENoAafG9YQ1V_dV-46" value="CONTACTO" style="text;html=1;align=center;verticalAlign=middle;resizable=0;points=[];autosize=1;strokeColor=none;fillColor=#66B2FF;fontStyle=1;fontSize=18;" parent="1" vertex="1">
          <mxGeometry x="160" y="150" width="120" height="40" as="geometry" />
        </mxCell>
        <mxCell id="_pYoHENoAafG9YQ1V_dV-84" style="edgeStyle=orthogonalEdgeStyle;rounded=0;orthogonalLoop=1;jettySize=auto;html=1;entryX=0.709;entryY=0.975;entryDx=0;entryDy=0;entryPerimeter=0;" parent="1" source="_pYoHENoAafG9YQ1V_dV-15" target="_pYoHENoAafG9YQ1V_dV-22" edge="1">
          <mxGeometry relative="1" as="geometry" />
        </mxCell>
        <mxCell id="_pYoHENoAafG9YQ1V_dV-101" style="edgeStyle=orthogonalEdgeStyle;rounded=0;orthogonalLoop=1;jettySize=auto;html=1;entryX=-0.037;entryY=0.425;entryDx=0;entryDy=0;entryPerimeter=0;" parent="1" source="_pYoHENoAafG9YQ1V_dV-34" target="_pYoHENoAafG9YQ1V_dV-29" edge="1">
          <mxGeometry relative="1" as="geometry">
            <Array as="points">
              <mxPoint x="360" y="527" />
            </Array>
          </mxGeometry>
        </mxCell>
        <mxCell id="_J7R9dKTH4H18V0iJDxj-5" style="edgeStyle=orthogonalEdgeStyle;rounded=0;orthogonalLoop=1;jettySize=auto;html=1;" edge="1" parent="1" source="_J7R9dKTH4H18V0iJDxj-1" target="_J7R9dKTH4H18V0iJDxj-2">
          <mxGeometry relative="1" as="geometry">
            <Array as="points">
              <mxPoint x="675" y="740" />
            </Array>
          </mxGeometry>
        </mxCell>
        <mxCell id="_J7R9dKTH4H18V0iJDxj-6" style="edgeStyle=orthogonalEdgeStyle;rounded=0;orthogonalLoop=1;jettySize=auto;html=1;" edge="1" parent="1" source="_J7R9dKTH4H18V0iJDxj-1" target="_J7R9dKTH4H18V0iJDxj-3">
          <mxGeometry relative="1" as="geometry">
            <Array as="points">
              <mxPoint x="675" y="820" />
            </Array>
          </mxGeometry>
        </mxCell>
        <mxCell id="_J7R9dKTH4H18V0iJDxj-7" style="edgeStyle=orthogonalEdgeStyle;rounded=0;orthogonalLoop=1;jettySize=auto;html=1;" edge="1" parent="1" source="_J7R9dKTH4H18V0iJDxj-1" target="_J7R9dKTH4H18V0iJDxj-4">
          <mxGeometry relative="1" as="geometry">
            <Array as="points">
              <mxPoint x="675" y="900" />
            </Array>
          </mxGeometry>
        </mxCell>
        <mxCell id="_J7R9dKTH4H18V0iJDxj-1" value="FOOTER" style="text;html=1;align=center;verticalAlign=middle;resizable=0;points=[];autosize=1;strokeColor=none;fillColor=#66B2FF;fontStyle=1;fontSize=18;" vertex="1" parent="1">
          <mxGeometry x="625" y="800" width="100" height="40" as="geometry" />
        </mxCell>
        <mxCell id="_J7R9dKTH4H18V0iJDxj-2" value="POLITICA PRIVACIDAD" style="text;html=1;align=center;verticalAlign=middle;resizable=0;points=[];autosize=1;strokeColor=none;fillColor=#66B2FF;fontStyle=1;fontSize=18;" vertex="1" parent="1">
          <mxGeometry x="185" y="730" width="220" height="40" as="geometry" />
        </mxCell>
        <mxCell id="_J7R9dKTH4H18V0iJDxj-3" value="POLITICA COOKIES" style="text;html=1;align=center;verticalAlign=middle;resizable=0;points=[];autosize=1;strokeColor=none;fillColor=#66B2FF;fontStyle=1;fontSize=18;" vertex="1" parent="1">
          <mxGeometry x="200" y="800" width="190" height="40" as="geometry" />
        </mxCell>
        <mxCell id="_J7R9dKTH4H18V0iJDxj-4" value="AVISO LEGAL" style="text;html=1;align=center;verticalAlign=middle;resizable=0;points=[];autosize=1;strokeColor=none;fillColor=#66B2FF;fontStyle=1;fontSize=18;" vertex="1" parent="1">
          <mxGeometry x="235" y="880" width="140" height="40" as="geometry" />
        </mxCell>
        <mxCell id="_J7R9dKTH4H18V0iJDxj-8" style="edgeStyle=orthogonalEdgeStyle;rounded=0;orthogonalLoop=1;jettySize=auto;html=1;entryX=0.491;entryY=0.025;entryDx=0;entryDy=0;entryPerimeter=0;" edge="1" parent="1" source="_pYoHENoAafG9YQ1V_dV-2" target="_pYoHENoAafG9YQ1V_dV-22">
          <mxGeometry relative="1" as="geometry" />
        </mxCell>
        <mxCell id="_J7R9dKTH4H18V0iJDxj-10" style="edgeStyle=orthogonalEdgeStyle;rounded=0;orthogonalLoop=1;jettySize=auto;html=1;entryX=0.542;entryY=0.075;entryDx=0;entryDy=0;entryPerimeter=0;" edge="1" parent="1" source="_pYoHENoAafG9YQ1V_dV-2" target="_pYoHENoAafG9YQ1V_dV-34">
          <mxGeometry relative="1" as="geometry" />
        </mxCell>
        <mxCell id="_J7R9dKTH4H18V0iJDxj-11" style="edgeStyle=orthogonalEdgeStyle;rounded=0;orthogonalLoop=1;jettySize=auto;html=1;entryX=0.542;entryY=-0.025;entryDx=0;entryDy=0;entryPerimeter=0;" edge="1" parent="1" source="_pYoHENoAafG9YQ1V_dV-2" target="_pYoHENoAafG9YQ1V_dV-46">
          <mxGeometry relative="1" as="geometry" />
        </mxCell>
        <mxCell id="_J7R9dKTH4H18V0iJDxj-12" style="edgeStyle=orthogonalEdgeStyle;rounded=0;orthogonalLoop=1;jettySize=auto;html=1;entryX=0.543;entryY=0.075;entryDx=0;entryDy=0;entryPerimeter=0;" edge="1" parent="1" source="_pYoHENoAafG9YQ1V_dV-2" target="_pYoHENoAafG9YQ1V_dV-6">
          <mxGeometry relative="1" as="geometry" />
        </mxCell>
        <mxCell id="_J7R9dKTH4H18V0iJDxj-14" style="edgeStyle=orthogonalEdgeStyle;rounded=0;orthogonalLoop=1;jettySize=auto;html=1;" edge="1" parent="1" source="_J7R9dKTH4H18V0iJDxj-13" target="_pYoHENoAafG9YQ1V_dV-2">
          <mxGeometry relative="1" as="geometry">
            <Array as="points">
              <mxPoint x="710" y="40" />
            </Array>
          </mxGeometry>
        </mxCell>
        <mxCell id="_J7R9dKTH4H18V0iJDxj-13" value="HEADER" style="text;html=1;align=center;verticalAlign=middle;resizable=0;points=[];autosize=1;strokeColor=none;fillColor=#66B2FF;fontStyle=1;fontSize=18;" vertex="1" parent="1">
          <mxGeometry x="490" y="20" width="100" height="40" as="geometry" />
        </mxCell>
        <mxCell id="_J7R9dKTH4H18V0iJDxj-18" value="DATOS PERSONALES" style="text;html=1;align=center;verticalAlign=middle;resizable=0;points=[];autosize=1;strokeColor=none;fillColor=#66B2FF;fontStyle=1;fontSize=18;" vertex="1" parent="1">
          <mxGeometry x="600" y="610" width="210" height="40" as="geometry" />
        </mxCell>
        <mxCell id="_J7R9dKTH4H18V0iJDxj-25" style="edgeStyle=orthogonalEdgeStyle;rounded=0;orthogonalLoop=1;jettySize=auto;html=1;entryX=0.909;entryY=1;entryDx=0;entryDy=0;entryPerimeter=0;" edge="1" parent="1" source="_pYoHENoAafG9YQ1V_dV-13" target="_pYoHENoAafG9YQ1V_dV-5">
          <mxGeometry relative="1" as="geometry" />
        </mxCell>
        <mxCell id="_J7R9dKTH4H18V0iJDxj-26" style="edgeStyle=orthogonalEdgeStyle;rounded=0;orthogonalLoop=1;jettySize=auto;html=1;entryX=0.364;entryY=1;entryDx=0;entryDy=0;entryPerimeter=0;" edge="1" parent="1" source="_pYoHENoAafG9YQ1V_dV-15" target="_pYoHENoAafG9YQ1V_dV-5">
          <mxGeometry relative="1" as="geometry" />
        </mxCell>
      </root>
    </mxGraphModel>
  </diagram>
</mxfile>
